<svg width="24" height="24" viewBox="0 0 24 24" fill="none" xmlns="http://www.w3.org/2000/svg">
<path d="M12 4.00001V1.33334M12 4.00001C11.2928 4.00001 10.6145 4.28096 10.1144 4.78106C9.61433 5.28116 9.33337 5.95943 9.33337 6.66668C9.33337 7.37392 9.61433 8.0522 10.1144 8.55229C10.6145 9.05239 11.2928 9.33334 12 9.33334M12 4.00001C12.7073 4.00001 13.3856 4.28096 13.8857 4.78106C14.3858 5.28116 14.6667 5.95943 14.6667 6.66668C14.6667 7.37392 14.3858 8.0522 13.8857 8.55229C13.3856 9.05239 12.7073 9.33334 12 9.33334M12 9.33334V22.6667M4.00004 20C4.70728 20 5.38556 19.7191 5.88566 19.219C6.38576 18.7189 6.66671 18.0406 6.66671 17.3333C6.66671 16.6261 6.38576 15.9478 5.88566 15.4477C5.38556 14.9476 4.70728 14.6667 4.00004 14.6667M4.00004 20C3.2928 20 2.61452 19.7191 2.11442 19.219C1.61433 18.7189 1.33337 18.0406 1.33337 17.3333C1.33337 16.6261 1.61433 15.9478 2.11442 15.4477C2.61452 14.9476 3.2928 14.6667 4.00004 14.6667M4.00004 20V22.6667M4.00004 14.6667V1.33334M20 20C20.7073 20 21.3856 19.7191 21.8857 19.219C22.3858 18.7189 22.6667 18.0406 22.6667 17.3333C22.6667 16.6261 22.3858 15.9478 21.8857 15.4477C21.3856 14.9476 20.7073 14.6667 20 14.6667M20 20C19.2928 20 18.6145 19.7191 18.1144 19.219C17.6143 18.7189 17.3334 18.0406 17.3334 17.3333C17.3334 16.6261 17.6143 15.9478 18.1144 15.4477C18.6145 14.9476 19.2928 14.6667 20 14.6667M20 20V22.6667M20 14.6667V1.33334" stroke="#121212" stroke-linecap="round" stroke-linejoin="round"/>
</svg>
