<svg width="12" height="12" viewBox="0 0 12 12" fill="none" xmlns="http://www.w3.org/2000/svg">
<path d="M6 4.17751C4.99649 4.17751 4.17754 4.99645 4.17754 5.99997C4.17754 7.00348 4.99649 7.82243 6 7.82243C7.00352 7.82243 7.82247 7.00348 7.82247 5.99997C7.82247 4.99645 7.00352 4.17751 6 4.17751ZM11.466 5.99997C11.466 5.24528 11.4729 4.49743 11.4305 3.74411C11.3881 2.86911 11.1885 2.09254 10.5486 1.4527C9.90743 0.81149 9.13223 0.613248 8.25723 0.570866C7.50254 0.528483 6.75469 0.535319 6.00137 0.535319C5.24668 0.535319 4.49883 0.528483 3.74551 0.570866C2.87051 0.613248 2.09395 0.812858 1.45411 1.4527C0.812894 2.09391 0.614652 2.86911 0.572269 3.74411C0.529887 4.49879 0.536723 5.24665 0.536723 5.99997C0.536723 6.75329 0.529887 7.5025 0.572269 8.25583C0.614652 9.13083 0.814262 9.90739 1.45411 10.5472C2.09532 11.1884 2.87051 11.3867 3.74551 11.4291C4.5002 11.4714 5.24805 11.4646 6.00137 11.4646C6.75606 11.4646 7.50391 11.4714 8.25723 11.4291C9.13223 11.3867 9.90879 11.1871 10.5486 10.5472C11.1898 9.90602 11.3881 9.13083 11.4305 8.25583C11.4742 7.5025 11.466 6.75465 11.466 5.99997ZM6 8.80407C4.44825 8.80407 3.1959 7.55172 3.1959 5.99997C3.1959 4.44821 4.44825 3.19586 6 3.19586C7.55176 3.19586 8.80411 4.44821 8.80411 5.99997C8.80411 7.55172 7.55176 8.80407 6 8.80407ZM8.91895 3.7359C8.55665 3.7359 8.26407 3.44333 8.26407 3.08102C8.26407 2.71872 8.55665 2.42614 8.91895 2.42614C9.28125 2.42614 9.57383 2.71872 9.57383 3.08102C9.57394 3.16705 9.55708 3.25226 9.5242 3.33176C9.49133 3.41126 9.4431 3.4835 9.38226 3.54433C9.32143 3.60517 9.24919 3.6534 9.16969 3.68627C9.09019 3.71915 9.00498 3.73601 8.91895 3.7359Z" fill="white"/>
</svg>
