<svg width="16" height="16" viewBox="0 0 16 16" fill="none" xmlns="http://www.w3.org/2000/svg">
<path d="M12.5 6.20001C13.0483 6.20002 13.5835 6.03314 14.0346 5.72156C14.4857 5.40998 14.8313 4.96846 15.0253 4.45572C15.2194 3.94298 15.2527 3.38331 15.121 2.85114C14.9892 2.31896 14.6986 1.83951 14.2877 1.47653C13.8769 1.11356 13.3652 0.884257 12.8209 0.819126C12.2765 0.753996 11.7252 0.856121 11.2403 1.11192C10.7554 1.36772 10.3599 1.76508 10.1063 2.25114C9.85273 2.73721 9.75312 3.28895 9.82073 3.83301L5.37473 6.05601C4.99334 5.68822 4.51217 5.44078 3.99116 5.3445C3.47015 5.24823 2.93232 5.30737 2.44468 5.51457C1.95704 5.72176 1.54114 6.06785 1.24878 6.50973C0.956425 6.9516 0.800537 7.46972 0.800537 7.99956C0.800537 8.52939 0.956425 9.04751 1.24878 9.48938C1.54114 9.93126 1.95704 10.2773 2.44468 10.4845C2.93232 10.6917 3.47015 10.7509 3.99116 10.6546C4.51217 10.5583 4.99334 10.3109 5.37473 9.94311L9.82073 12.1661C9.74198 12.7981 9.88919 13.4376 10.2363 13.9716C10.5835 14.5056 11.1082 14.8997 11.7178 15.0842C12.3274 15.2687 12.9826 15.2318 13.5676 14.9799C14.1526 14.7281 14.6297 14.2776 14.9147 13.708C15.1997 13.1384 15.2741 12.4864 15.1248 11.8672C14.9756 11.248 14.6122 10.7016 14.099 10.3244C13.5858 9.94719 12.9558 9.76356 12.3203 9.80594C11.6848 9.84833 11.0848 10.114 10.6262 10.556L6.18023 8.33301C6.20747 8.11184 6.20747 7.88817 6.18023 7.66701L10.6262 5.44401C11.1104 5.912 11.771 6.20001 12.5 6.20001Z" fill="#121212"/>
</svg>
