<svg width="14" height="12" viewBox="0 0 14 12" fill="none" xmlns="http://www.w3.org/2000/svg">
<path d="M13.4531 1.99414C12.9774 2.20469 12.4688 2.34688 11.9328 2.4125C12.4797 2.08438 12.9008 1.56484 13.0977 0.946875C12.5863 1.25039 12.0203 1.47187 11.416 1.58945C10.932 1.07266 10.243 0.75 9.48283 0.75C8.01993 0.75 6.83595 1.93672 6.83595 3.39961C6.83595 3.60742 6.85782 3.80977 6.90431 4.00391C4.70314 3.89453 2.75079 2.83906 1.4465 1.23398C1.21954 1.625 1.08829 2.08164 1.08829 2.56562C1.08829 3.48437 1.55861 4.29648 2.26954 4.77227C1.83204 4.76133 1.42189 4.64102 1.06642 4.44141V4.47422C1.06642 5.75938 1.9797 6.82852 3.19103 7.07188C2.96954 7.13203 2.73439 7.16484 2.49376 7.16484C2.32423 7.16484 2.15743 7.14844 1.99611 7.11562C2.33243 8.16836 3.31134 8.93398 4.47072 8.95586C3.56564 9.6668 2.42267 10.0906 1.18126 10.0906C0.967981 10.0906 0.757434 10.077 0.549622 10.0523C1.7172 10.8125 3.109 11.25 4.60197 11.25C9.47736 11.25 12.1406 7.21133 12.1406 3.70859C12.1406 3.59375 12.1379 3.47891 12.1324 3.3668C12.6492 2.99219 13.0977 2.52734 13.4531 1.99414Z" fill="white"/>
</svg>
